<svg xmlns="http://www.w3.org/2000/svg" width="640" height="640" viewBox="0 0 640 640">
<rect width="100%" height="100%" fill="white"/>
<rect x="0" y="0" width="80" height="80" fill="#f0d9b5" stroke="black"/>
<rect x="80" y="0" width="80" height="80" fill="#b58863" stroke="black"/>
<text x="120.0" y="52.0" text-anchor="middle" font-size="54" font-family="Arial">♛</text>
<rect x="160" y="0" width="80" height="80" fill="#f0d9b5" stroke="black"/>
<rect x="240" y="0" width="80" height="80" fill="#b58863" stroke="black"/>
<rect x="320" y="0" width="80" height="80" fill="#f0d9b5" stroke="black"/>
<rect x="400" y="0" width="80" height="80" fill="#b58863" stroke="black"/>
<rect x="480" y="0" width="80" height="80" fill="#f0d9b5" stroke="black"/>
<rect x="560" y="0" width="80" height="80" fill="#b58863" stroke="black"/>
<rect x="0" y="80" width="80" height="80" fill="#b58863" stroke="black"/>
<rect x="80" y="80" width="80" height="80" fill="#f0d9b5" stroke="black"/>
<rect x="160" y="80" width="80" height="80" fill="#b58863" stroke="black"/>
<rect x="240" y="80" width="80" height="80" fill="#f0d9b5" stroke="black"/>
<text x="280.0" y="132.0" text-anchor="middle" font-size="54" font-family="Arial">♛</text>
<rect x="320" y="80" width="80" height="80" fill="#b58863" stroke="black"/>
<rect x="400" y="80" width="80" height="80" fill="#f0d9b5" stroke="black"/>
<rect x="480" y="80" width="80" height="80" fill="#b58863" stroke="black"/>
<rect x="560" y="80" width="80" height="80" fill="#f0d9b5" stroke="black"/>
<rect x="0" y="160" width="80" height="80" fill="#f0d9b5" stroke="black"/>
<rect x="80" y="160" width="80" height="80" fill="#b58863" stroke="black"/>
<rect x="160" y="160" width="80" height="80" fill="#f0d9b5" stroke="black"/>
<rect x="240" y="160" width="80" height="80" fill="#b58863" stroke="black"/>
<rect x="320" y="160" width="80" height="80" fill="#f0d9b5" stroke="black"/>
<rect x="400" y="160" width="80" height="80" fill="#b58863" stroke="black"/>
<text x="440.0" y="212.0" text-anchor="middle" font-size="54" font-family="Arial">♛</text>
<rect x="480" y="160" width="80" height="80" fill="#f0d9b5" stroke="black"/>
<rect x="560" y="160" width="80" height="80" fill="#b58863" stroke="black"/>
<rect x="0" y="240" width="80" height="80" fill="#b58863" stroke="black"/>
<rect x="80" y="240" width="80" height="80" fill="#f0d9b5" stroke="black"/>
<rect x="160" y="240" width="80" height="80" fill="#b58863" stroke="black"/>
<rect x="240" y="240" width="80" height="80" fill="#f0d9b5" stroke="black"/>
<rect x="320" y="240" width="80" height="80" fill="#b58863" stroke="black"/>
<rect x="400" y="240" width="80" height="80" fill="#f0d9b5" stroke="black"/>
<rect x="480" y="240" width="80" height="80" fill="#b58863" stroke="black"/>
<rect x="560" y="240" width="80" height="80" fill="#f0d9b5" stroke="black"/>
<text x="600.0" y="292.0" text-anchor="middle" font-size="54" font-family="Arial">♛</text>
<rect x="0" y="320" width="80" height="80" fill="#f0d9b5" stroke="black"/>
<rect x="80" y="320" width="80" height="80" fill="#b58863" stroke="black"/>
<rect x="160" y="320" width="80" height="80" fill="#f0d9b5" stroke="black"/>
<text x="200.0" y="372.0" text-anchor="middle" font-size="54" font-family="Arial">♛</text>
<rect x="240" y="320" width="80" height="80" fill="#b58863" stroke="black"/>
<rect x="320" y="320" width="80" height="80" fill="#f0d9b5" stroke="black"/>
<rect x="400" y="320" width="80" height="80" fill="#b58863" stroke="black"/>
<rect x="480" y="320" width="80" height="80" fill="#f0d9b5" stroke="black"/>
<rect x="560" y="320" width="80" height="80" fill="#b58863" stroke="black"/>
<rect x="0" y="400" width="80" height="80" fill="#b58863" stroke="black"/>
<text x="40.0" y="452.0" text-anchor="middle" font-size="54" font-family="Arial">♛</text>
<rect x="80" y="400" width="80" height="80" fill="#f0d9b5" stroke="black"/>
<rect x="160" y="400" width="80" height="80" fill="#b58863" stroke="black"/>
<rect x="240" y="400" width="80" height="80" fill="#f0d9b5" stroke="black"/>
<rect x="320" y="400" width="80" height="80" fill="#b58863" stroke="black"/>
<rect x="400" y="400" width="80" height="80" fill="#f0d9b5" stroke="black"/>
<rect x="480" y="400" width="80" height="80" fill="#b58863" stroke="black"/>
<rect x="560" y="400" width="80" height="80" fill="#f0d9b5" stroke="black"/>
<rect x="0" y="480" width="80" height="80" fill="#f0d9b5" stroke="black"/>
<rect x="80" y="480" width="80" height="80" fill="#b58863" stroke="black"/>
<rect x="160" y="480" width="80" height="80" fill="#f0d9b5" stroke="black"/>
<rect x="240" y="480" width="80" height="80" fill="#b58863" stroke="black"/>
<rect x="320" y="480" width="80" height="80" fill="#f0d9b5" stroke="black"/>
<rect x="400" y="480" width="80" height="80" fill="#b58863" stroke="black"/>
<rect x="480" y="480" width="80" height="80" fill="#f0d9b5" stroke="black"/>
<text x="520.0" y="532.0" text-anchor="middle" font-size="54" font-family="Arial">♛</text>
<rect x="560" y="480" width="80" height="80" fill="#b58863" stroke="black"/>
<rect x="0" y="560" width="80" height="80" fill="#b58863" stroke="black"/>
<rect x="80" y="560" width="80" height="80" fill="#f0d9b5" stroke="black"/>
<rect x="160" y="560" width="80" height="80" fill="#b58863" stroke="black"/>
<rect x="240" y="560" width="80" height="80" fill="#f0d9b5" stroke="black"/>
<rect x="320" y="560" width="80" height="80" fill="#b58863" stroke="black"/>
<text x="360.0" y="612.0" text-anchor="middle" font-size="54" font-family="Arial">♛</text>
<rect x="400" y="560" width="80" height="80" fill="#f0d9b5" stroke="black"/>
<rect x="480" y="560" width="80" height="80" fill="#b58863" stroke="black"/>
<rect x="560" y="560" width="80" height="80" fill="#f0d9b5" stroke="black"/>
</svg>